<svg id="svg" xmlns="http://www.w3.org/2000/svg" xmlns:xlink="http://www.w3.org/1999/xlink" width="400" height="400" viewBox="0, 0, 400,400"><g id="svgg"><path id="path0" d="M274.000 59.948 C 273.010 60.307,272.140 60.735,272.067 60.900 C 271.993 61.065,271.723 61.201,271.467 61.202 C 271.210 61.204,270.550 61.444,270.000 61.736 C 269.450 62.028,267.940 62.837,266.644 63.533 C 265.348 64.230,263.975 64.800,263.593 64.800 C 263.211 64.800,262.674 65.070,262.400 65.400 C 262.126 65.730,261.681 66.000,261.411 66.000 C 261.140 66.000,260.037 66.472,258.960 67.049 C 256.313 68.465,252.735 70.270,252.000 70.559 C 251.670 70.689,251.040 71.004,250.600 71.261 C 249.042 72.167,248.593 72.408,248.000 72.655 C 247.670 72.792,245.732 73.691,243.693 74.652 C 241.654 75.613,239.807 76.400,239.588 76.400 C 239.368 76.400,238.877 76.560,238.495 76.756 C 238.113 76.951,237.080 77.423,236.200 77.805 C 235.320 78.186,234.090 78.746,233.468 79.049 C 232.845 79.352,232.030 79.600,231.657 79.600 C 231.283 79.600,230.623 79.844,230.189 80.142 C 229.755 80.440,228.950 80.782,228.400 80.901 C 227.260 81.149,224.914 81.953,223.949 82.426 C 223.591 82.602,222.644 82.868,221.845 83.018 C 221.045 83.168,220.293 83.450,220.172 83.645 C 220.051 83.840,219.468 84.006,218.876 84.014 C 218.284 84.022,217.350 84.286,216.800 84.600 C 216.250 84.914,215.339 85.178,214.776 85.186 C 214.214 85.194,213.404 85.464,212.976 85.787 C 212.549 86.110,211.660 86.387,211.000 86.401 C 210.340 86.416,209.350 86.686,208.800 87.000 C 208.250 87.314,207.236 87.578,206.546 87.586 C 205.856 87.594,204.776 87.869,204.146 88.198 C 203.516 88.526,202.503 88.796,201.895 88.798 C 201.287 88.799,200.477 88.961,200.095 89.158 C 199.713 89.354,198.500 89.698,197.400 89.921 C 196.300 90.145,194.230 90.621,192.800 90.981 C 191.370 91.341,189.300 91.790,188.200 91.979 C 187.100 92.168,185.693 92.520,185.074 92.761 C 184.455 93.003,183.276 93.200,182.454 93.200 C 181.632 93.200,180.783 93.377,180.566 93.594 C 180.350 93.810,179.099 94.156,177.786 94.361 C 176.474 94.567,174.680 94.915,173.800 95.135 C 172.920 95.355,171.120 95.744,169.800 96.000 C 168.480 96.256,166.680 96.645,165.800 96.865 C 164.920 97.085,163.278 97.412,162.151 97.591 C 161.024 97.771,159.731 98.116,159.277 98.359 C 158.824 98.601,158.011 98.800,157.472 98.800 C 156.537 98.800,154.406 99.344,150.346 100.618 C 149.327 100.938,148.067 101.206,147.546 101.213 C 147.026 101.220,146.251 101.490,145.824 101.813 C 145.396 102.136,144.577 102.400,144.004 102.400 C 143.430 102.400,142.789 102.554,142.580 102.742 C 142.371 102.930,141.210 103.396,140.000 103.777 C 135.990 105.040,128.944 108.405,127.387 109.800 C 127.142 110.020,126.127 110.825,125.132 111.588 C 123.151 113.107,120.251 116.776,118.798 119.600 C 117.211 122.685,115.582 125.774,115.212 126.400 C 115.017 126.730,114.749 127.270,114.616 127.600 C 114.483 127.930,113.581 129.640,112.611 131.400 C 109.287 137.434,94.400 167.606,94.400 168.309 C 94.400 168.544,94.150 169.245,93.844 169.868 C 91.200 175.258,90.511 187.059,92.659 190.189 C 92.956 190.623,93.200 191.382,93.200 191.875 C 93.200 192.369,93.455 193.364,93.767 194.086 C 94.078 194.809,94.618 196.057,94.967 196.860 C 95.315 197.664,95.600 198.424,95.600 198.550 C 95.600 198.765,96.487 200.795,98.594 205.400 C 99.097 206.500,99.911 208.390,100.403 209.600 C 100.895 210.810,101.838 212.970,102.499 214.400 C 103.159 215.830,104.147 217.990,104.694 219.200 C 105.241 220.410,105.852 221.670,106.050 222.000 C 106.249 222.330,106.608 223.099,106.848 223.708 C 107.536 225.456,108.632 225.830,109.152 224.494 C 112.439 216.058,124.806 202.915,135.800 196.176 C 137.938 194.865,138.590 193.996,138.064 193.154 C 137.809 192.745,137.600 191.993,137.600 191.482 C 137.600 190.971,137.336 190.204,137.013 189.776 C 136.690 189.349,136.420 188.610,136.413 188.132 C 136.406 187.655,136.148 186.755,135.839 186.132 C 134.790 184.013,134.000 181.974,134.000 181.386 C 134.000 181.064,133.848 180.800,133.663 180.800 C 133.212 180.800,132.299 177.688,132.605 177.193 C 132.738 176.977,133.829 175.872,135.031 174.735 C 136.232 173.599,137.610 172.024,138.093 171.235 C 138.575 170.446,139.157 169.597,139.385 169.349 C 139.613 169.101,140.070 168.495,140.400 168.002 C 141.207 166.796,143.250 163.925,143.666 163.413 C 144.803 162.012,147.486 158.087,147.709 157.500 C 147.855 157.115,148.118 156.800,148.293 156.800 C 148.468 156.800,149.039 156.107,149.563 155.261 C 150.930 153.047,151.413 152.865,156.665 152.578 C 159.269 152.436,162.288 152.067,163.373 151.760 C 164.458 151.452,166.010 151.200,166.822 151.200 C 167.635 151.200,169.065 150.930,170.000 150.600 C 170.935 150.270,172.196 150.000,172.801 150.000 C 173.407 150.000,174.580 149.717,175.408 149.371 C 177.528 148.485,178.279 148.809,181.245 151.886 C 182.683 153.379,184.717 155.320,185.764 156.200 C 191.368 160.908,191.254 160.763,190.963 162.774 C 190.818 163.778,190.563 164.780,190.396 165.000 C 190.229 165.220,189.959 166.024,189.795 166.787 C 189.632 167.550,189.368 168.450,189.208 168.787 C 189.048 169.124,188.601 170.120,188.215 171.000 C 187.828 171.880,187.361 172.870,187.177 173.200 C 186.992 173.530,186.457 174.509,185.988 175.376 C 184.513 178.097,175.665 186.400,174.240 186.400 C 174.128 186.400,172.210 187.504,169.977 188.853 C 166.043 191.229,162.931 192.967,159.200 194.871 C 158.210 195.376,156.320 196.433,155.000 197.220 C 153.680 198.008,152.330 198.777,152.000 198.930 C 151.670 199.084,150.918 199.522,150.328 199.904 C 149.739 200.287,148.009 201.370,146.485 202.312 C 144.155 203.751,140.564 206.239,139.000 207.498 C 138.780 207.675,137.430 208.714,136.000 209.807 C 130.738 213.829,124.320 221.115,122.035 225.661 C 121.554 226.618,121.017 227.670,120.842 228.000 C 120.668 228.330,120.286 229.050,119.994 229.600 C 116.389 236.401,116.187 245.570,119.522 251.000 C 122.037 255.094,125.272 258.000,127.316 258.000 C 127.828 258.000,128.596 258.264,129.024 258.587 C 129.451 258.910,130.184 259.180,130.654 259.187 C 131.124 259.194,132.024 259.469,132.654 259.798 C 133.999 260.499,138.253 260.581,140.600 259.952 C 141.480 259.716,143.190 259.397,144.400 259.244 C 145.610 259.091,146.993 258.748,147.474 258.483 C 147.954 258.217,148.764 257.994,149.274 257.987 C 149.783 257.980,150.549 257.710,150.976 257.387 C 151.404 257.064,152.124 256.794,152.576 256.787 C 153.029 256.780,153.749 256.510,154.176 256.187 C 154.604 255.864,155.251 255.600,155.615 255.600 C 156.222 255.600,157.970 254.904,159.695 253.974 C 160.077 253.768,160.679 253.600,161.033 253.600 C 161.387 253.600,162.154 253.357,162.738 253.061 C 163.322 252.764,164.475 252.224,165.300 251.861 C 168.665 250.378,169.478 250.013,171.200 249.211 C 172.190 248.749,174.080 247.758,175.400 247.009 C 176.720 246.260,178.475 245.273,179.300 244.815 C 180.125 244.358,180.800 243.828,180.800 243.639 C 180.800 243.449,181.115 243.188,181.500 243.058 C 182.336 242.778,183.623 241.968,184.191 241.366 C 184.416 241.127,185.815 240.058,187.300 238.989 C 188.785 237.920,190.000 236.900,190.000 236.723 C 190.000 236.545,190.239 236.400,190.532 236.400 C 190.824 236.400,192.129 235.453,193.432 234.295 C 194.734 233.137,196.610 231.539,197.600 230.744 C 198.590 229.948,200.802 228.042,202.516 226.508 C 204.229 224.974,206.119 223.469,206.716 223.165 C 207.312 222.861,208.630 222.114,209.644 221.506 C 210.659 220.898,211.763 220.400,212.099 220.400 C 212.434 220.400,213.224 220.131,213.854 219.802 C 214.484 219.474,215.369 219.204,215.820 219.202 C 216.271 219.201,216.811 219.039,217.020 218.842 C 217.229 218.645,218.210 218.297,219.200 218.067 C 223.349 217.105,224.620 216.734,224.980 216.377 C 225.189 216.170,225.914 216.000,226.591 216.000 C 227.268 216.000,228.177 215.755,228.611 215.455 C 229.045 215.155,229.940 214.816,230.600 214.701 C 231.825 214.487,233.612 213.887,235.860 212.934 C 236.554 212.640,237.398 212.400,237.737 212.400 C 238.076 212.400,238.464 212.220,238.600 212.000 C 238.736 211.780,239.152 211.599,239.524 211.598 C 239.896 211.596,240.716 211.326,241.346 210.998 C 241.976 210.669,242.809 210.400,243.197 210.400 C 243.585 210.400,244.126 210.130,244.400 209.800 C 244.674 209.470,245.214 209.200,245.600 209.200 C 245.986 209.200,246.526 208.930,246.800 208.600 C 247.074 208.270,247.519 208.000,247.789 208.000 C 248.060 208.000,249.073 207.579,250.040 207.064 C 255.945 203.922,257.533 203.021,258.673 202.160 C 259.374 201.632,260.059 201.200,260.197 201.200 C 261.536 201.200,267.619 195.489,272.112 190.014 C 272.752 189.234,274.323 186.472,274.907 185.100 C 275.165 184.495,275.516 184.000,275.688 184.000 C 275.859 184.000,276.000 183.752,276.000 183.450 C 276.000 182.450,278.993 176.455,281.117 173.200 C 281.476 172.650,282.056 171.660,282.404 171.000 C 283.528 168.875,284.177 167.831,285.300 166.342 C 285.905 165.541,286.403 164.731,286.406 164.542 C 286.410 164.354,287.127 163.390,288.000 162.400 C 288.873 161.410,289.590 160.459,289.594 160.287 C 289.600 159.948,294.908 154.333,298.259 151.119 C 300.561 148.910,303.997 146.334,306.992 144.572 C 308.087 143.927,309.347 143.182,309.792 142.916 C 310.236 142.649,310.825 142.334,311.100 142.216 C 311.375 142.097,311.825 141.903,312.100 141.784 C 315.029 140.521,317.863 137.834,318.539 135.680 C 320.220 130.327,319.734 117.896,317.636 112.600 C 316.975 110.930,316.318 108.953,316.004 107.689 C 315.826 106.967,315.505 106.157,315.293 105.889 C 315.081 105.620,314.811 104.950,314.694 104.400 C 314.459 103.298,313.752 101.251,312.966 99.400 C 312.042 97.222,309.143 91.011,308.765 90.400 C 308.562 90.070,308.293 89.530,308.169 89.200 C 308.044 88.870,307.774 88.330,307.569 88.000 C 307.363 87.670,307.072 87.130,306.922 86.800 C 306.050 84.884,300.305 75.889,299.287 74.844 C 298.989 74.538,298.444 73.818,298.076 73.244 C 296.511 70.800,292.546 66.769,289.200 64.219 C 287.770 63.129,286.510 62.114,286.400 61.962 C 286.290 61.811,285.390 61.293,284.400 60.812 C 283.410 60.330,282.287 59.770,281.905 59.568 C 280.822 58.994,275.993 59.226,274.000 59.948 M102.135 255.316 C 99.939 257.562,97.715 260.120,97.193 261.000 C 96.670 261.880,96.143 262.690,96.021 262.800 C 95.900 262.910,95.202 264.260,94.472 265.800 C 93.741 267.340,92.886 269.110,92.572 269.732 C 92.257 270.355,92.000 271.264,92.000 271.752 C 92.000 272.241,91.808 272.832,91.573 273.067 C 91.153 273.487,90.757 275.443,89.968 281.000 C 89.357 285.306,89.932 291.257,91.424 296.054 C 91.741 297.073,92.000 298.215,92.000 298.592 C 92.000 298.968,92.249 299.754,92.554 300.338 C 92.858 300.922,93.443 302.117,93.854 302.993 C 96.722 309.117,101.929 315.670,106.400 318.786 C 107.170 319.322,107.898 319.900,108.017 320.070 C 108.405 320.621,116.256 324.800,116.903 324.800 C 117.110 324.800,117.846 325.061,118.540 325.379 C 124.329 328.041,134.427 328.408,143.000 326.268 C 144.320 325.938,146.210 325.468,147.200 325.222 C 155.369 323.197,166.194 314.132,170.395 305.800 C 170.617 305.360,170.959 304.730,171.155 304.400 C 172.639 301.906,174.975 294.335,175.610 289.961 C 176.219 285.772,175.590 276.547,174.523 274.000 C 174.292 273.450,173.769 271.920,173.361 270.600 C 172.680 268.398,170.957 264.717,169.570 262.500 C 168.977 261.552,166.687 261.212,166.200 262.000 C 166.064 262.220,165.535 262.400,165.025 262.400 C 164.515 262.400,163.874 262.670,163.600 263.000 C 163.326 263.330,162.714 263.600,162.240 263.600 C 161.766 263.600,161.023 263.844,160.589 264.142 C 160.155 264.440,159.350 264.782,158.800 264.901 C 157.813 265.116,155.758 265.807,154.200 266.449 C 152.531 267.136,149.776 267.989,149.200 267.997 C 148.870 268.001,148.060 268.293,147.400 268.646 C 144.556 270.164,129.834 271.010,126.982 269.818 C 126.168 269.478,125.089 269.200,124.584 269.200 C 124.078 269.200,123.155 268.942,122.532 268.627 C 121.910 268.312,120.860 267.812,120.200 267.517 C 117.169 266.161,110.400 260.591,110.400 259.454 C 110.400 259.336,109.860 258.440,109.200 257.462 C 108.540 256.484,107.994 255.440,107.987 255.142 C 107.980 254.844,107.710 254.251,107.387 253.824 C 107.064 253.396,106.800 252.732,106.800 252.347 C 106.800 250.856,105.990 251.371,102.135 255.316 " stroke="none" fill="#fcfbfb" fill-rule="evenodd"></path><path id="path1" d="M186.000 1.200 C 186.000 1.447,183.943 1.600,180.629 1.600 C 176.387 1.600,175.131 1.726,174.657 2.200 C 174.224 2.633,173.171 2.800,170.878 2.800 C 168.539 2.800,167.566 2.959,167.200 3.400 C 166.834 3.841,165.863 4.000,163.538 4.000 C 161.095 4.000,160.322 4.137,160.145 4.600 C 159.976 5.039,159.284 5.200,157.557 5.200 C 155.729 5.200,155.200 5.335,155.200 5.800 C 155.200 6.261,154.689 6.400,153.000 6.400 C 151.311 6.400,150.800 6.539,150.800 7.000 C 150.800 7.460,150.292 7.600,148.624 7.600 C 147.427 7.600,146.336 7.780,146.200 8.000 C 146.064 8.220,145.278 8.400,144.453 8.400 C 143.628 8.400,142.604 8.664,142.176 8.987 C 141.749 9.310,140.918 9.580,140.329 9.587 C 139.739 9.594,138.987 9.870,138.657 10.200 C 138.327 10.530,137.629 10.800,137.105 10.800 C 136.581 10.800,135.804 11.064,135.376 11.387 C 134.949 11.710,134.009 11.980,133.287 11.987 C 132.499 11.995,131.883 12.240,131.745 12.600 C 131.613 12.942,131.017 13.200,130.357 13.200 C 129.595 13.200,129.200 13.405,129.200 13.800 C 129.200 14.234,128.754 14.400,127.587 14.400 C 126.523 14.400,125.897 14.604,125.745 15.000 C 125.613 15.342,125.017 15.600,124.357 15.600 C 123.721 15.600,123.200 15.780,123.200 16.000 C 123.200 16.220,122.750 16.400,122.200 16.400 C 121.578 16.400,121.200 16.627,121.200 17.000 C 121.200 17.434,120.754 17.600,119.587 17.600 C 118.523 17.600,117.897 17.804,117.745 18.200 C 117.618 18.530,117.084 18.800,116.557 18.800 C 115.973 18.800,115.600 19.034,115.600 19.400 C 115.600 19.800,115.200 20.000,114.400 20.000 C 113.600 20.000,113.200 20.200,113.200 20.600 C 113.200 21.000,112.800 21.200,112.000 21.200 C 111.200 21.200,110.800 21.400,110.800 21.800 C 110.800 22.169,110.425 22.400,109.824 22.400 C 109.287 22.400,108.736 22.580,108.600 22.800 C 108.464 23.020,107.998 23.200,107.564 23.200 C 107.130 23.200,106.671 23.470,106.545 23.800 C 106.418 24.130,105.893 24.400,105.377 24.400 C 104.862 24.400,104.296 24.625,104.120 24.900 C 103.765 25.454,102.652 26.205,101.339 26.776 C 100.865 26.982,100.360 27.342,100.215 27.575 C 100.071 27.809,99.603 28.000,99.176 28.000 C 98.749 28.000,98.400 28.270,98.400 28.600 C 98.400 28.963,98.029 29.200,97.458 29.200 C 96.941 29.200,96.031 29.650,95.438 30.200 C 94.844 30.750,94.008 31.200,93.579 31.200 C 93.151 31.200,92.800 31.450,92.800 31.757 C 92.800 32.063,92.350 32.426,91.800 32.564 C 91.250 32.702,90.800 32.992,90.800 33.208 C 90.800 33.423,90.440 33.600,90.000 33.600 C 89.556 33.600,89.200 33.867,89.200 34.200 C 89.200 34.530,88.930 34.800,88.600 34.800 C 88.270 34.800,88.000 35.070,88.000 35.400 C 88.000 35.773,87.622 36.000,87.000 36.000 C 86.378 36.000,86.000 36.227,86.000 36.600 C 86.000 36.930,85.730 37.200,85.400 37.200 C 85.070 37.200,84.798 37.335,84.796 37.500 C 84.794 37.665,83.984 38.155,82.996 38.590 C 82.008 39.024,81.200 39.609,81.200 39.890 C 81.200 40.170,80.949 40.400,80.643 40.400 C 80.336 40.400,79.982 40.670,79.855 41.000 C 79.729 41.330,79.259 41.600,78.813 41.600 C 78.357 41.600,78.000 41.864,78.000 42.200 C 78.000 42.530,77.730 42.800,77.400 42.800 C 77.070 42.800,76.800 43.070,76.800 43.400 C 76.800 43.730,76.530 44.000,76.200 44.000 C 75.870 44.000,75.600 44.180,75.600 44.400 C 75.600 44.620,75.420 44.800,75.200 44.800 C 74.980 44.800,74.453 45.115,74.029 45.500 C 72.579 46.816,72.034 47.200,71.617 47.200 C 71.388 47.200,71.200 47.470,71.200 47.800 C 71.200 48.130,70.930 48.400,70.600 48.400 C 70.270 48.400,70.000 48.670,70.000 49.000 C 70.000 49.330,69.730 49.600,69.400 49.600 C 69.070 49.600,68.800 49.870,68.800 50.200 C 68.800 50.530,68.618 50.800,68.397 50.800 C 67.794 50.800,65.600 52.858,65.600 53.423 C 65.600 53.693,65.153 54.025,64.607 54.163 C 63.603 54.414,56.350 61.422,53.400 64.989 C 52.520 66.054,51.575 67.154,51.300 67.434 C 51.025 67.714,50.800 68.136,50.800 68.371 C 50.800 68.607,50.530 68.800,50.200 68.800 C 49.870 68.800,49.600 69.070,49.600 69.400 C 49.600 69.730,49.330 70.000,49.000 70.000 C 48.670 70.000,48.400 70.270,48.400 70.600 C 48.400 70.930,48.151 71.200,47.847 71.200 C 47.542 71.200,47.174 71.515,47.029 71.900 C 46.450 73.436,45.785 74.400,45.305 74.400 C 45.027 74.400,44.800 74.670,44.800 75.000 C 44.800 75.330,44.620 75.600,44.400 75.600 C 44.180 75.600,44.000 75.870,44.000 76.200 C 44.000 76.530,43.730 76.800,43.400 76.800 C 43.070 76.800,42.800 77.051,42.800 77.357 C 42.800 77.664,42.530 78.018,42.200 78.145 C 41.870 78.271,41.600 78.741,41.600 79.187 C 41.600 79.643,41.336 80.000,41.000 80.000 C 40.670 80.000,40.400 80.251,40.400 80.557 C 40.400 80.864,40.130 81.218,39.800 81.345 C 39.470 81.471,39.200 81.946,39.200 82.400 C 39.200 82.854,38.930 83.329,38.600 83.455 C 38.270 83.582,38.000 83.936,38.000 84.243 C 38.000 84.549,37.820 84.800,37.600 84.800 C 37.380 84.800,37.200 85.070,37.200 85.400 C 37.200 85.730,36.930 86.000,36.600 86.000 C 36.227 86.000,36.000 86.378,36.000 87.000 C 36.000 87.622,35.773 88.000,35.400 88.000 C 35.070 88.000,34.800 88.251,34.800 88.557 C 34.800 88.864,34.530 89.218,34.200 89.345 C 33.870 89.471,33.600 90.031,33.600 90.587 C 33.600 91.221,33.375 91.600,33.000 91.600 C 32.670 91.600,32.400 91.870,32.400 92.200 C 32.400 92.530,32.223 92.800,32.008 92.800 C 31.792 92.800,31.506 93.237,31.372 93.771 C 31.237 94.305,30.874 94.839,30.564 94.959 C 30.254 95.078,30.000 95.415,30.000 95.708 C 30.000 96.636,29.020 98.394,28.500 98.397 C 28.212 98.399,28.000 98.908,28.000 99.600 C 28.000 100.400,27.800 100.800,27.400 100.800 C 27.027 100.800,26.800 101.178,26.800 101.800 C 26.800 102.350,26.575 102.801,26.300 102.803 C 26.025 102.805,25.170 104.150,24.400 105.791 C 23.630 107.433,22.865 108.781,22.700 108.788 C 22.535 108.795,22.400 109.321,22.400 109.957 C 22.400 110.617,22.142 111.213,21.800 111.345 C 21.470 111.471,21.200 111.921,21.200 112.345 C 21.200 112.768,20.930 113.218,20.600 113.345 C 20.223 113.489,20.000 114.101,20.000 114.987 C 20.000 115.976,19.820 116.400,19.400 116.400 C 19.000 116.400,18.800 116.800,18.800 117.600 C 18.800 118.400,18.600 118.800,18.200 118.800 C 17.805 118.800,17.600 119.195,17.600 119.957 C 17.600 120.617,17.342 121.213,17.000 121.345 C 16.670 121.471,16.400 122.031,16.400 122.587 C 16.400 123.144,16.220 123.600,16.000 123.600 C 15.780 123.600,15.600 124.320,15.600 125.200 C 15.600 126.356,15.433 126.800,15.000 126.800 C 14.606 126.800,14.400 127.195,14.400 127.951 C 14.400 128.584,14.130 129.326,13.800 129.600 C 13.470 129.874,13.200 130.539,13.200 131.078 C 13.200 131.616,12.930 132.327,12.600 132.657 C 12.270 132.987,12.000 133.855,12.000 134.586 C 12.000 135.398,11.767 136.004,11.400 136.145 C 11.040 136.283,10.795 136.899,10.787 137.687 C 10.780 138.409,10.510 139.349,10.187 139.776 C 9.864 140.204,9.600 141.329,9.600 142.276 C 9.600 143.542,9.441 144.000,9.000 144.000 C 8.568 144.000,8.400 144.442,8.400 145.576 C 8.400 146.443,8.220 147.264,8.000 147.400 C 7.780 147.536,7.600 148.627,7.600 149.824 C 7.600 151.492,7.460 152.000,7.000 152.000 C 6.541 152.000,6.400 152.506,6.400 154.151 C 6.400 155.575,6.197 156.470,5.800 156.800 C 5.366 157.160,5.200 158.114,5.200 160.249 C 5.200 162.605,5.079 163.200,4.600 163.200 C 4.125 163.200,4.000 163.773,4.000 165.957 C 4.000 168.039,3.853 168.771,3.400 168.945 C 2.923 169.128,2.800 169.983,2.800 173.126 C 2.800 175.666,2.602 177.492,2.246 178.239 C 0.784 181.305,0.800 220.343,2.265 221.808 C 2.644 222.187,2.800 223.575,2.800 226.584 C 2.800 229.985,2.919 230.871,3.400 231.055 C 3.853 231.229,4.000 231.961,4.000 234.043 C 4.000 236.227,4.125 236.800,4.600 236.800 C 5.076 236.800,5.200 237.379,5.200 239.613 C 5.200 241.744,5.345 242.481,5.800 242.655 C 6.240 242.824,6.400 243.518,6.400 245.255 C 6.400 246.993,6.560 247.687,7.000 247.855 C 7.406 248.011,7.600 248.647,7.600 249.819 C 7.600 250.773,7.780 251.664,8.000 251.800 C 8.220 251.936,8.400 252.917,8.400 253.981 C 8.400 255.331,8.581 255.984,9.000 256.145 C 9.392 256.295,9.600 256.918,9.600 257.945 C 9.600 258.971,9.808 259.594,10.200 259.745 C 10.571 259.887,10.800 260.495,10.800 261.338 C 10.800 262.088,11.070 262.926,11.400 263.200 C 11.730 263.474,12.000 264.306,12.000 265.049 C 12.000 265.983,12.185 266.400,12.600 266.400 C 13.044 266.400,13.200 266.867,13.200 268.200 C 13.200 269.533,13.356 270.000,13.800 270.000 C 14.233 270.000,14.400 270.444,14.400 271.600 C 14.400 272.756,14.567 273.200,15.000 273.200 C 15.400 273.200,15.600 273.600,15.600 274.400 C 15.600 275.060,15.780 275.600,16.000 275.600 C 16.220 275.600,16.400 276.127,16.400 276.771 C 16.400 277.416,16.670 278.213,17.000 278.543 C 17.330 278.873,17.600 279.521,17.600 279.984 C 17.600 280.447,17.870 280.929,18.200 281.055 C 18.530 281.182,18.800 281.722,18.800 282.255 C 18.800 282.789,19.070 283.329,19.400 283.455 C 19.730 283.582,20.000 284.094,20.000 284.594 C 20.000 285.093,20.270 285.726,20.600 286.000 C 20.930 286.274,21.200 286.814,21.200 287.200 C 21.200 287.586,21.470 288.126,21.800 288.400 C 22.130 288.674,22.400 289.236,22.400 289.649 C 22.400 290.062,22.580 290.400,22.800 290.400 C 23.020 290.400,23.200 290.856,23.200 291.413 C 23.200 291.969,23.470 292.529,23.800 292.655 C 24.130 292.782,24.400 293.316,24.400 293.843 C 24.400 294.427,24.634 294.800,25.000 294.800 C 25.400 294.800,25.600 295.200,25.600 296.000 C 25.600 296.800,25.800 297.200,26.200 297.200 C 26.573 297.200,26.800 297.578,26.800 298.200 C 26.800 298.822,27.027 299.200,27.400 299.200 C 27.730 299.200,28.000 299.470,28.000 299.800 C 28.000 300.130,28.270 300.400,28.600 300.400 C 29.000 300.400,29.200 300.800,29.200 301.600 C 29.200 302.260,29.360 302.800,29.557 302.800 C 29.753 302.800,30.018 303.219,30.147 303.731 C 30.276 304.243,30.835 305.153,31.390 305.752 C 31.946 306.351,32.400 307.192,32.400 307.621 C 32.400 308.049,32.670 308.400,33.000 308.400 C 33.330 308.400,33.600 308.648,33.600 308.951 C 33.600 309.254,33.870 309.726,34.200 310.000 C 34.530 310.274,34.800 310.836,34.800 311.249 C 34.800 311.662,35.070 312.000,35.400 312.000 C 35.730 312.000,36.000 312.270,36.000 312.600 C 36.000 312.930,36.270 313.200,36.600 313.200 C 36.973 313.200,37.200 313.578,37.200 314.200 C 37.200 314.750,37.380 315.200,37.600 315.200 C 37.820 315.200,38.000 315.470,38.000 315.800 C 38.000 316.130,38.270 316.400,38.600 316.400 C 38.930 316.400,39.200 316.738,39.200 317.151 C 39.200 317.564,39.470 318.126,39.800 318.400 C 40.130 318.674,40.400 319.146,40.400 319.449 C 40.400 319.752,40.670 320.000,41.000 320.000 C 41.330 320.000,41.600 320.270,41.600 320.600 C 41.600 320.930,41.796 321.200,42.036 321.200 C 42.607 321.200,43.970 322.845,43.987 323.554 C 43.994 323.859,44.450 324.525,45.000 325.035 C 45.550 325.545,46.000 326.150,46.000 326.381 C 46.000 326.611,46.270 326.800,46.600 326.800 C 46.930 326.800,47.200 327.070,47.200 327.400 C 47.200 327.730,47.384 328.000,47.610 328.000 C 47.835 328.000,48.191 328.450,48.400 329.000 C 48.609 329.550,48.965 330.000,49.190 330.000 C 49.416 330.000,49.600 330.270,49.600 330.600 C 49.600 330.930,49.870 331.200,50.200 331.200 C 50.530 331.200,50.800 331.394,50.800 331.632 C 50.800 332.194,54.206 335.600,54.768 335.600 C 55.006 335.600,55.200 335.870,55.200 336.200 C 55.200 336.530,55.470 336.800,55.800 336.800 C 56.130 336.800,56.400 337.070,56.400 337.400 C 56.400 337.730,56.670 338.000,57.000 338.000 C 57.330 338.000,57.600 338.270,57.600 338.600 C 57.600 338.930,57.780 339.200,58.000 339.200 C 58.220 339.200,58.400 339.470,58.400 339.800 C 58.400 340.130,58.670 340.400,59.000 340.400 C 59.330 340.400,59.600 340.670,59.600 341.000 C 59.600 341.330,59.870 341.600,60.200 341.600 C 60.530 341.600,60.800 341.870,60.800 342.200 C 60.800 342.530,61.070 342.800,61.400 342.800 C 61.730 342.800,62.000 342.980,62.000 343.200 C 62.000 343.420,62.270 343.600,62.600 343.600 C 62.930 343.600,63.200 343.870,63.200 344.200 C 63.200 344.530,63.470 344.800,63.800 344.800 C 64.130 344.800,64.400 345.070,64.400 345.400 C 64.400 345.730,64.670 346.000,65.000 346.000 C 65.330 346.000,65.600 346.194,65.600 346.432 C 65.600 346.883,68.954 350.400,69.385 350.400 C 69.940 350.400,73.170 353.036,73.184 353.500 C 73.193 353.775,73.470 354.000,73.800 354.000 C 74.130 354.000,74.400 354.270,74.400 354.600 C 74.400 354.930,74.571 355.200,74.779 355.200 C 74.988 355.200,75.644 355.650,76.238 356.200 C 76.831 356.750,77.741 357.200,78.258 357.200 C 78.776 357.200,79.200 357.409,79.200 357.665 C 79.200 358.352,82.088 360.799,82.900 360.800 C 83.285 360.800,83.600 361.070,83.600 361.400 C 83.600 361.730,83.793 362.000,84.029 362.000 C 84.264 362.000,84.727 362.270,85.057 362.600 C 85.387 362.930,86.004 363.200,86.429 363.200 C 86.853 363.200,87.200 363.393,87.200 363.629 C 87.200 364.247,88.245 365.200,88.922 365.200 C 89.241 365.200,89.726 365.470,90.000 365.800 C 90.274 366.130,90.746 366.400,91.049 366.400 C 91.352 366.400,91.600 366.670,91.600 367.000 C 91.600 367.400,92.000 367.600,92.800 367.600 C 93.460 367.600,94.000 367.780,94.000 368.000 C 94.000 368.678,95.558 370.000,96.357 370.000 C 96.774 370.000,97.218 370.270,97.345 370.600 C 97.471 370.930,98.031 371.200,98.587 371.200 C 99.144 371.200,99.600 371.380,99.600 371.600 C 99.600 371.820,99.870 372.000,100.200 372.000 C 100.530 372.000,100.800 372.270,100.800 372.600 C 100.800 372.973,101.178 373.200,101.800 373.200 C 102.422 373.200,102.800 373.427,102.800 373.800 C 102.800 374.200,103.200 374.400,104.000 374.400 C 104.800 374.400,105.200 374.600,105.200 375.000 C 105.200 375.400,105.600 375.600,106.400 375.600 C 107.200 375.600,107.600 375.800,107.600 376.200 C 107.600 376.566,107.973 376.800,108.557 376.800 C 109.084 376.800,109.618 377.070,109.745 377.400 C 109.871 377.730,110.431 378.000,110.987 378.000 C 111.544 378.000,112.000 378.180,112.000 378.400 C 112.000 378.620,112.540 378.800,113.200 378.800 C 114.000 378.800,114.400 379.000,114.400 379.400 C 114.400 379.773,114.778 380.000,115.400 380.000 C 116.022 380.000,116.400 380.227,116.400 380.600 C 116.400 381.000,116.800 381.200,117.600 381.200 C 118.400 381.200,118.800 381.400,118.800 381.800 C 118.800 382.200,119.200 382.400,120.000 382.400 C 120.660 382.400,121.200 382.578,121.200 382.795 C 121.200 383.013,121.909 383.304,122.775 383.442 C 123.642 383.581,124.446 383.943,124.563 384.247 C 124.679 384.551,125.231 384.800,125.787 384.800 C 126.344 384.800,126.800 384.980,126.800 385.200 C 126.800 385.420,127.520 385.600,128.400 385.600 C 129.556 385.600,130.000 385.767,130.000 386.200 C 130.000 386.595,130.395 386.800,131.157 386.800 C 131.817 386.800,132.413 387.058,132.545 387.400 C 132.695 387.792,133.318 388.000,134.345 388.000 C 135.371 388.000,135.994 388.208,136.145 388.600 C 136.287 388.971,136.895 389.200,137.738 389.200 C 138.488 389.200,139.326 389.470,139.600 389.800 C 139.918 390.183,140.803 390.400,142.049 390.400 C 143.517 390.400,144.000 390.549,144.000 391.000 C 144.000 391.431,144.441 391.600,145.567 391.600 C 146.428 391.600,147.202 391.807,147.287 392.060 C 147.371 392.314,148.466 392.606,149.720 392.710 C 150.974 392.814,152.000 393.057,152.000 393.250 C 152.000 393.442,152.971 393.600,154.157 393.600 C 155.706 393.600,156.379 393.769,156.545 394.200 C 156.719 394.653,157.451 394.800,159.538 394.800 C 161.507 394.800,162.445 394.973,162.800 395.400 C 163.153 395.825,164.087 396.000,166.006 396.000 C 168.044 396.000,168.771 396.148,168.945 396.600 C 169.126 397.073,169.948 397.200,172.816 397.200 C 175.519 397.200,176.612 397.355,177.057 397.800 C 177.551 398.294,179.095 398.400,185.795 398.400 C 190.618 398.400,193.988 398.556,194.067 398.783 C 194.264 399.351,206.345 399.415,206.909 398.851 C 207.213 398.547,209.884 398.400,215.093 398.400 C 221.597 398.400,222.862 398.305,223.055 397.800 C 223.239 397.323,224.094 397.200,227.243 397.200 C 230.494 397.200,231.200 397.093,231.200 396.600 C 231.200 396.114,231.844 396.000,234.600 396.000 C 237.356 396.000,238.000 395.886,238.000 395.400 C 238.000 394.924,238.578 394.800,240.800 394.800 C 243.022 394.800,243.600 394.676,243.600 394.200 C 243.600 393.733,244.133 393.600,246.000 393.600 C 247.333 393.600,248.400 393.422,248.400 393.200 C 248.400 392.980,249.306 392.800,250.413 392.800 C 251.832 392.800,252.493 392.623,252.655 392.200 C 252.810 391.796,253.444 391.600,254.594 391.600 C 255.624 391.600,256.500 391.362,256.800 391.000 C 257.087 390.654,257.960 390.400,258.862 390.400 C 259.882 390.400,260.505 390.192,260.655 389.800 C 260.806 389.408,261.429 389.200,262.455 389.200 C 263.482 389.200,264.105 388.992,264.255 388.600 C 264.405 388.209,265.028 388.000,266.043 388.000 C 267.160 388.000,267.600 387.831,267.600 387.400 C 267.600 386.967,268.044 386.800,269.200 386.800 C 270.356 386.800,270.800 386.633,270.800 386.200 C 270.800 385.800,271.200 385.600,272.000 385.600 C 272.660 385.600,273.200 385.420,273.200 385.200 C 273.200 384.980,273.706 384.800,274.324 384.800 C 274.941 384.800,275.796 384.536,276.224 384.213 C 276.651 383.890,277.405 383.620,277.900 383.613 C 278.428 383.605,278.800 383.352,278.800 383.000 C 278.800 382.600,279.200 382.400,280.000 382.400 C 280.800 382.400,281.200 382.200,281.200 381.800 C 281.200 381.380,281.624 381.200,282.613 381.200 C 283.499 381.200,284.111 380.977,284.255 380.600 C 284.387 380.258,284.983 380.000,285.643 380.000 C 286.405 380.000,286.800 379.795,286.800 379.400 C 286.800 379.000,287.200 378.800,288.000 378.800 C 288.660 378.800,289.200 378.620,289.200 378.400 C 289.200 378.180,289.547 378.000,289.971 378.000 C 290.396 378.000,290.989 377.754,291.290 377.453 C 291.591 377.152,292.234 376.780,292.719 376.626 C 293.203 376.472,293.600 376.178,293.600 375.973 C 293.600 375.768,294.056 375.600,294.613 375.600 C 295.169 375.600,295.729 375.330,295.855 375.000 C 295.982 374.670,296.336 374.400,296.643 374.400 C 296.949 374.400,297.200 374.130,297.200 373.800 C 297.200 373.400,297.600 373.200,298.400 373.200 C 299.200 373.200,299.600 373.000,299.600 372.600 C 299.600 372.227,299.978 372.000,300.600 372.000 C 301.150 372.000,301.602 371.865,301.604 371.700 C 301.606 371.535,302.416 371.045,303.404 370.610 C 304.392 370.176,305.200 369.591,305.200 369.310 C 305.200 369.030,305.650 368.800,306.200 368.800 C 306.822 368.800,307.200 368.573,307.200 368.200 C 307.200 367.870,307.470 367.600,307.800 367.600 C 308.130 367.600,308.400 367.330,308.400 367.000 C 308.400 366.600,308.800 366.400,309.600 366.400 C 310.400 366.400,310.800 366.200,310.800 365.800 C 310.800 365.470,311.086 365.200,311.436 365.200 C 312.295 365.200,315.181 363.125,315.191 362.500 C 315.196 362.225,315.547 362.000,315.971 362.000 C 316.396 362.000,317.013 361.730,317.343 361.400 C 317.673 361.070,318.136 360.800,318.371 360.800 C 318.607 360.800,318.800 360.530,318.800 360.200 C 318.800 359.870,319.070 359.600,319.400 359.600 C 319.730 359.600,320.000 359.330,320.000 359.000 C 320.000 358.627,320.378 358.400,321.000 358.400 C 321.622 358.400,322.000 358.173,322.000 357.800 C 322.000 357.470,322.270 357.200,322.600 357.200 C 322.930 357.200,323.200 357.020,323.200 356.800 C 323.200 356.580,323.470 356.400,323.800 356.400 C 324.130 356.400,324.400 356.130,324.400 355.800 C 324.400 355.470,324.670 355.200,325.000 355.200 C 325.330 355.200,325.600 354.930,325.600 354.600 C 325.600 354.242,325.968 354.000,326.511 354.000 C 327.404 354.000,328.800 352.777,328.800 351.995 C 328.800 351.778,329.070 351.600,329.400 351.600 C 329.730 351.600,330.000 351.330,330.000 351.000 C 330.000 350.670,330.270 350.400,330.600 350.400 C 330.930 350.400,331.200 350.220,331.200 350.000 C 331.200 349.780,331.470 349.600,331.800 349.600 C 332.130 349.600,332.400 349.330,332.400 349.000 C 332.400 348.670,332.650 348.400,332.954 348.400 C 333.259 348.400,334.630 347.320,336.000 346.000 C 337.370 344.680,338.579 343.600,338.687 343.600 C 339.056 343.600,343.600 338.781,343.600 338.390 C 343.600 338.175,343.870 338.000,344.200 338.000 C 344.530 338.000,344.800 337.831,344.800 337.624 C 344.800 337.416,345.610 336.425,346.600 335.421 C 347.590 334.417,348.400 333.326,348.400 332.998 C 348.400 332.669,348.670 332.400,349.000 332.400 C 349.330 332.400,349.600 332.130,349.600 331.800 C 349.600 331.470,349.780 331.200,350.000 331.200 C 350.220 331.200,350.400 330.930,350.400 330.600 C 350.400 330.270,350.670 330.000,351.000 330.000 C 351.330 330.000,351.600 329.730,351.600 329.400 C 351.600 329.070,351.809 328.800,352.065 328.800 C 352.752 328.800,355.199 325.912,355.200 325.100 C 355.200 324.715,355.470 324.400,355.800 324.400 C 356.130 324.400,356.400 324.130,356.400 323.800 C 356.400 323.470,356.580 323.200,356.800 323.200 C 357.020 323.200,357.200 322.930,357.200 322.600 C 357.200 322.270,357.470 322.000,357.800 322.000 C 358.130 322.000,358.400 321.749,358.400 321.443 C 358.400 321.136,358.670 320.782,359.000 320.655 C 359.330 320.529,359.600 320.059,359.600 319.613 C 359.600 319.157,359.864 318.800,360.200 318.800 C 360.530 318.800,360.800 318.549,360.800 318.243 C 360.800 317.936,361.070 317.582,361.400 317.455 C 361.730 317.329,362.000 316.958,362.000 316.631 C 362.000 316.304,362.495 315.541,363.100 314.937 C 364.312 313.724,365.200 312.210,365.200 311.354 C 365.200 311.049,365.470 310.800,365.800 310.800 C 366.130 310.800,366.400 310.552,366.400 310.249 C 366.400 309.946,366.670 309.474,367.000 309.200 C 367.330 308.926,367.600 308.364,367.600 307.951 C 367.600 307.538,367.849 307.200,368.153 307.200 C 368.458 307.200,368.812 306.885,368.942 306.500 C 369.276 305.504,370.115 304.255,370.700 303.880 C 370.975 303.704,371.200 303.119,371.200 302.580 C 371.200 302.041,371.380 301.600,371.600 301.600 C 371.820 301.600,372.000 301.349,372.000 301.043 C 372.000 300.736,372.270 300.382,372.600 300.255 C 372.930 300.129,373.200 299.679,373.200 299.255 C 373.200 298.832,373.470 298.382,373.800 298.255 C 374.130 298.129,374.400 297.569,374.400 297.013 C 374.400 296.379,374.625 296.000,375.000 296.000 C 375.400 296.000,375.600 295.600,375.600 294.800 C 375.600 294.000,375.800 293.600,376.200 293.600 C 376.566 293.600,376.800 293.227,376.800 292.643 C 376.800 292.116,377.070 291.582,377.400 291.455 C 377.730 291.329,378.000 290.769,378.000 290.213 C 378.000 289.656,378.180 289.200,378.400 289.200 C 378.620 289.200,378.800 288.660,378.800 288.000 C 378.800 287.200,379.000 286.800,379.400 286.800 C 379.766 286.800,380.000 286.427,380.000 285.843 C 380.000 285.316,380.270 284.782,380.600 284.655 C 380.930 284.529,381.200 283.969,381.200 283.413 C 381.200 282.779,381.425 282.400,381.800 282.400 C 382.195 282.400,382.400 282.005,382.400 281.243 C 382.400 280.583,382.658 279.987,383.000 279.855 C 383.372 279.713,383.600 279.104,383.600 278.255 C 383.600 277.407,383.828 276.798,384.200 276.655 C 384.530 276.529,384.800 275.969,384.800 275.413 C 384.800 274.856,384.980 274.400,385.200 274.400 C 385.420 274.400,385.600 273.680,385.600 272.800 C 385.600 271.644,385.767 271.200,386.200 271.200 C 386.595 271.200,386.800 270.805,386.800 270.043 C 386.800 269.383,387.058 268.787,387.400 268.655 C 387.792 268.505,388.000 267.882,388.000 266.855 C 388.000 265.829,388.208 265.206,388.600 265.055 C 388.972 264.913,389.200 264.304,389.200 263.455 C 389.200 262.607,389.428 261.998,389.800 261.855 C 390.192 261.705,390.400 261.082,390.400 260.055 C 390.400 259.029,390.608 258.406,391.000 258.255 C 391.408 258.099,391.600 257.460,391.600 256.262 C 391.600 255.182,391.833 254.305,392.200 254.000 C 392.583 253.682,392.800 252.797,392.800 251.551 C 392.800 250.478,392.980 249.600,393.200 249.600 C 393.422 249.600,393.600 248.533,393.600 247.200 C 393.600 245.333,393.733 244.800,394.200 244.800 C 394.659 244.800,394.800 244.294,394.800 242.643 C 394.800 241.094,394.969 240.421,395.400 240.255 C 395.850 240.083,396.000 239.363,396.000 237.384 C 396.000 235.570,396.188 234.555,396.600 234.143 C 397.052 233.691,397.200 232.573,397.200 229.614 C 397.200 226.491,397.323 225.638,397.800 225.455 C 398.287 225.268,398.402 224.302,398.413 220.313 C 398.422 216.628,398.572 215.206,399.013 214.624 C 399.899 213.452,399.887 185.944,399.000 185.057 C 398.533 184.590,398.400 183.386,398.400 179.616 C 398.400 175.682,398.288 174.732,397.800 174.545 C 397.320 174.360,397.200 173.482,397.200 170.145 C 397.200 166.807,397.080 165.929,396.600 165.745 C 396.137 165.567,396.000 164.793,396.000 162.345 C 396.000 159.896,395.863 159.123,395.400 158.945 C 394.996 158.790,394.800 158.156,394.800 157.006 C 394.800 155.976,394.562 155.100,394.200 154.800 C 393.791 154.461,393.600 153.553,393.600 151.951 C 393.600 150.658,393.443 149.600,393.251 149.600 C 393.059 149.600,392.812 148.663,392.702 147.517 C 392.592 146.371,392.299 145.366,392.051 145.284 C 391.803 145.201,391.600 144.423,391.600 143.554 C 391.600 142.519,391.393 141.896,391.000 141.745 C 390.608 141.594,390.400 140.971,390.400 139.945 C 390.400 138.918,390.192 138.295,389.800 138.145 C 389.409 137.995,389.200 137.372,389.200 136.357 C 389.200 135.240,389.031 134.800,388.600 134.800 C 388.156 134.800,388.000 134.333,388.000 133.000 C 388.000 131.667,387.844 131.200,387.400 131.200 C 386.967 131.200,386.800 130.756,386.800 129.600 C 386.800 128.444,386.633 128.000,386.200 128.000 C 385.800 128.000,385.600 127.600,385.600 126.800 C 385.600 126.140,385.420 125.600,385.200 125.600 C 384.980 125.600,384.800 125.073,384.800 124.429 C 384.800 123.784,384.530 122.987,384.200 122.657 C 383.870 122.327,383.600 121.594,383.600 121.029 C 383.600 120.381,383.378 120.000,383.000 120.000 C 382.600 120.000,382.400 119.600,382.400 118.800 C 382.400 118.000,382.200 117.600,381.800 117.600 C 381.435 117.600,381.200 117.228,381.200 116.649 C 381.200 116.126,380.930 115.474,380.600 115.200 C 380.270 114.926,380.000 114.178,380.000 113.538 C 380.000 112.873,379.743 112.276,379.400 112.145 C 379.070 112.018,378.800 111.484,378.800 110.957 C 378.800 110.431,378.665 109.998,378.500 109.996 C 378.335 109.994,377.847 109.189,377.415 108.206 C 376.983 107.224,376.398 106.331,376.115 106.223 C 375.832 106.114,375.600 105.569,375.600 105.013 C 375.600 104.379,375.375 104.000,375.000 104.000 C 374.625 104.000,374.400 103.621,374.400 102.987 C 374.400 102.431,374.130 101.871,373.800 101.745 C 373.470 101.618,373.200 101.084,373.200 100.557 C 373.200 99.973,372.966 99.600,372.600 99.600 C 372.227 99.600,372.000 99.222,372.000 98.600 C 372.000 98.050,371.820 97.600,371.600 97.600 C 371.380 97.600,371.200 97.324,371.200 96.987 C 371.200 96.651,370.930 96.271,370.600 96.145 C 370.270 96.018,370.000 95.484,370.000 94.957 C 370.000 94.373,369.766 94.000,369.400 94.000 C 369.070 94.000,368.800 93.807,368.800 93.571 C 368.800 93.336,368.530 92.873,368.200 92.543 C 367.870 92.213,367.600 91.596,367.600 91.171 C 367.600 90.747,367.330 90.400,367.000 90.400 C 366.670 90.400,366.400 90.130,366.400 89.800 C 366.400 89.470,366.130 89.200,365.800 89.200 C 365.427 89.200,365.200 88.822,365.200 88.200 C 365.200 87.650,365.020 87.200,364.800 87.200 C 364.580 87.200,364.400 86.930,364.400 86.600 C 364.400 86.270,364.211 86.000,363.979 86.000 C 363.748 86.000,363.370 85.460,363.140 84.800 C 362.910 84.140,362.559 83.600,362.361 83.600 C 362.162 83.600,362.000 83.330,362.000 83.000 C 362.000 82.670,361.750 82.400,361.443 82.400 C 361.137 82.400,360.774 81.950,360.636 81.400 C 360.498 80.850,360.208 80.400,359.992 80.400 C 359.777 80.400,359.600 80.130,359.600 79.800 C 359.600 79.470,359.330 79.200,359.000 79.200 C 358.670 79.200,358.400 78.930,358.400 78.600 C 358.400 78.270,358.130 78.000,357.800 78.000 C 357.470 78.000,357.200 77.730,357.200 77.400 C 357.200 77.070,357.040 76.800,356.843 76.800 C 356.647 76.800,356.384 76.390,356.258 75.888 C 355.985 74.803,353.924 72.400,353.264 72.400 C 353.009 72.400,352.800 72.130,352.800 71.800 C 352.800 71.470,352.530 71.200,352.200 71.200 C 351.870 71.200,351.600 70.930,351.600 70.600 C 351.600 70.270,351.330 70.000,351.000 70.000 C 350.627 70.000,350.400 69.622,350.400 69.000 C 350.400 68.450,350.265 67.999,350.100 67.999 C 349.935 67.998,349.440 67.459,349.000 66.800 C 348.560 66.141,347.975 65.602,347.700 65.601 C 347.425 65.601,347.200 65.330,347.200 65.000 C 347.200 64.670,346.930 64.400,346.600 64.400 C 346.270 64.400,346.000 64.130,346.000 63.800 C 346.000 63.470,345.730 63.200,345.400 63.200 C 345.070 63.200,344.800 62.930,344.800 62.600 C 344.800 62.270,344.530 62.000,344.200 62.000 C 343.870 62.000,343.600 61.806,343.600 61.568 C 343.600 61.006,340.194 57.600,339.632 57.600 C 339.394 57.600,339.200 57.330,339.200 57.000 C 339.200 56.670,338.930 56.400,338.600 56.400 C 338.270 56.400,338.000 56.130,338.000 55.800 C 338.000 55.470,337.730 55.200,337.400 55.200 C 337.070 55.200,336.800 54.930,336.800 54.600 C 336.800 54.270,336.530 54.000,336.200 54.000 C 335.870 54.000,335.600 53.834,335.600 53.631 C 335.600 53.175,333.261 50.800,332.812 50.800 C 332.632 50.800,332.382 50.530,332.255 50.200 C 332.129 49.870,331.569 49.600,331.013 49.600 C 330.379 49.600,330.000 49.375,330.000 49.000 C 330.000 48.670,329.730 48.400,329.400 48.400 C 329.070 48.400,328.800 48.211,328.800 47.980 C 328.800 46.980,324.780 43.664,322.700 42.948 C 322.315 42.815,322.000 42.548,322.000 42.353 C 322.000 41.772,320.446 40.400,319.787 40.400 C 319.451 40.400,319.071 40.130,318.945 39.800 C 318.818 39.470,318.464 39.200,318.157 39.200 C 317.851 39.200,317.600 38.930,317.600 38.600 C 317.600 38.270,317.330 38.000,317.000 38.000 C 316.670 38.000,316.400 37.820,316.400 37.600 C 316.400 37.380,315.950 37.200,315.400 37.200 C 314.778 37.200,314.400 36.973,314.400 36.600 C 314.400 36.270,314.149 36.000,313.843 36.000 C 313.536 36.000,313.182 35.730,313.055 35.400 C 312.929 35.070,312.369 34.800,311.813 34.800 C 311.179 34.800,310.800 34.575,310.800 34.200 C 310.800 33.870,310.530 33.600,310.200 33.600 C 309.870 33.600,309.600 33.330,309.600 33.000 C 309.600 32.670,309.253 32.400,308.829 32.400 C 308.404 32.400,307.787 32.130,307.457 31.800 C 307.127 31.470,306.664 31.200,306.429 31.200 C 306.193 31.200,306.000 31.023,306.000 30.808 C 306.000 30.592,305.550 30.302,305.000 30.164 C 304.450 30.026,304.000 29.753,304.000 29.557 C 304.000 29.360,303.752 29.200,303.449 29.200 C 303.146 29.200,302.674 28.930,302.400 28.600 C 302.126 28.270,301.564 28.000,301.151 28.000 C 300.738 28.000,300.400 27.730,300.400 27.400 C 300.400 27.027,300.022 26.800,299.400 26.800 C 298.778 26.800,298.400 26.573,298.400 26.200 C 298.400 25.800,298.000 25.600,297.200 25.600 C 296.400 25.600,296.000 25.400,296.000 25.000 C 296.000 24.625,295.621 24.400,294.987 24.400 C 294.431 24.400,293.871 24.130,293.745 23.800 C 293.618 23.470,293.184 23.200,292.781 23.200 C 292.377 23.200,291.936 23.020,291.800 22.800 C 291.664 22.580,291.023 22.400,290.376 22.400 C 289.597 22.400,289.200 22.197,289.200 21.800 C 289.200 21.470,288.862 21.200,288.449 21.200 C 288.036 21.200,287.474 20.930,287.200 20.600 C 286.926 20.270,286.358 20.000,285.938 20.000 C 285.519 20.000,285.071 19.730,284.945 19.400 C 284.813 19.058,284.217 18.800,283.557 18.800 C 282.795 18.800,282.400 18.595,282.400 18.200 C 282.400 17.805,282.005 17.600,281.243 17.600 C 280.583 17.600,279.987 17.342,279.855 17.000 C 279.729 16.670,279.169 16.400,278.613 16.400 C 278.056 16.400,277.600 16.220,277.600 16.000 C 277.600 15.780,276.880 15.600,276.000 15.600 C 274.844 15.600,274.400 15.433,274.400 15.000 C 274.400 14.605,274.005 14.400,273.243 14.400 C 272.583 14.400,271.987 14.142,271.855 13.800 C 271.713 13.428,271.104 13.200,270.255 13.200 C 269.407 13.200,268.798 12.972,268.655 12.600 C 268.503 12.204,267.877 12.000,266.813 12.000 C 265.646 12.000,265.200 11.834,265.200 11.400 C 265.200 10.969,264.760 10.800,263.643 10.800 C 262.628 10.800,262.005 10.591,261.855 10.200 C 261.704 9.807,261.081 9.600,260.046 9.600 C 259.177 9.600,258.399 9.397,258.316 9.149 C 258.234 8.901,257.229 8.608,256.083 8.498 C 254.937 8.388,254.000 8.141,254.000 7.949 C 254.000 7.757,253.190 7.600,252.200 7.600 C 250.867 7.600,250.400 7.444,250.400 7.000 C 250.400 6.541,249.894 6.400,248.249 6.400 C 246.825 6.400,245.930 6.197,245.600 5.800 C 245.260 5.391,244.351 5.200,242.738 5.200 C 241.007 5.200,240.313 5.040,240.145 4.600 C 239.967 4.138,239.199 4.000,236.800 4.000 C 234.401 4.000,233.633 3.862,233.455 3.400 C 233.277 2.935,232.480 2.797,229.913 2.787 C 227.636 2.779,226.357 2.591,225.824 2.187 C 225.232 1.740,223.788 1.600,219.747 1.600 C 216.645 1.600,214.345 1.434,214.200 1.200 C 213.861 0.651,186.000 0.651,186.000 1.200 M281.905 59.568 C 282.287 59.770,283.410 60.330,284.400 60.812 C 285.390 61.293,286.290 61.811,286.400 61.962 C 286.510 62.114,287.770 63.129,289.200 64.219 C 292.546 66.769,296.511 70.800,298.076 73.244 C 298.444 73.818,298.989 74.538,299.287 74.844 C 300.305 75.889,306.050 84.884,306.922 86.800 C 307.072 87.130,307.363 87.670,307.569 88.000 C 307.774 88.330,308.044 88.870,308.169 89.200 C 308.293 89.530,308.562 90.070,308.765 90.400 C 309.143 91.011,312.042 97.222,312.966 99.400 C 313.752 101.251,314.459 103.298,314.694 104.400 C 314.811 104.950,315.081 105.620,315.293 105.889 C 315.505 106.157,315.826 106.967,316.004 107.689 C 316.318 108.953,316.975 110.930,317.636 112.600 C 319.181 116.500,319.846 122.781,319.416 129.400 C 318.938 136.751,317.286 139.547,312.100 141.784 C 311.825 141.903,311.375 142.097,311.100 142.216 C 310.825 142.334,310.236 142.649,309.792 142.916 C 309.347 143.182,308.087 143.927,306.992 144.572 C 303.997 146.334,300.561 148.910,298.259 151.119 C 294.908 154.333,289.600 159.948,289.594 160.287 C 289.590 160.459,288.873 161.410,288.000 162.400 C 287.127 163.390,286.410 164.354,286.406 164.542 C 286.403 164.731,285.905 165.541,285.300 166.342 C 284.177 167.831,283.528 168.875,282.404 171.000 C 282.056 171.660,281.476 172.650,281.117 173.200 C 278.993 176.455,276.000 182.450,276.000 183.450 C 276.000 183.752,275.859 184.000,275.688 184.000 C 275.516 184.000,275.165 184.495,274.907 185.100 C 274.323 186.472,272.752 189.234,272.112 190.014 C 267.619 195.489,261.536 201.200,260.197 201.200 C 260.059 201.200,259.374 201.632,258.673 202.160 C 257.533 203.021,255.945 203.922,250.040 207.064 C 249.073 207.579,248.060 208.000,247.789 208.000 C 247.519 208.000,247.074 208.270,246.800 208.600 C 246.526 208.930,245.986 209.200,245.600 209.200 C 245.214 209.200,244.674 209.470,244.400 209.800 C 244.126 210.130,243.585 210.400,243.197 210.400 C 242.809 210.400,241.976 210.669,241.346 210.998 C 240.716 211.326,239.896 211.596,239.524 211.598 C 239.152 211.599,238.736 211.780,238.600 212.000 C 238.464 212.220,238.076 212.400,237.737 212.400 C 237.398 212.400,236.554 212.640,235.860 212.934 C 233.612 213.887,231.825 214.487,230.600 214.701 C 229.940 214.816,229.045 215.155,228.611 215.455 C 228.177 215.755,227.268 216.000,226.591 216.000 C 225.914 216.000,225.189 216.170,224.980 216.377 C 224.620 216.734,223.349 217.105,219.200 218.067 C 218.210 218.297,217.229 218.645,217.020 218.842 C 216.811 219.039,216.271 219.201,215.820 219.202 C 215.369 219.204,214.484 219.474,213.854 219.802 C 213.224 220.131,212.434 220.400,212.099 220.400 C 211.763 220.400,210.659 220.898,209.644 221.506 C 208.630 222.114,207.312 222.861,206.716 223.165 C 206.119 223.469,204.229 224.974,202.516 226.508 C 200.802 228.042,198.590 229.948,197.600 230.744 C 196.610 231.539,194.734 233.137,193.432 234.295 C 192.129 235.453,190.824 236.400,190.532 236.400 C 190.239 236.400,190.000 236.545,190.000 236.723 C 190.000 236.900,188.785 237.920,187.300 238.989 C 185.815 240.058,184.416 241.127,184.191 241.366 C 183.623 241.968,182.336 242.778,181.500 243.058 C 181.115 243.188,180.800 243.449,180.800 243.639 C 180.800 243.828,180.125 244.358,179.300 244.815 C 178.475 245.273,176.720 246.260,175.400 247.009 C 174.080 247.758,172.190 248.749,171.200 249.211 C 169.478 250.013,168.665 250.378,165.300 251.861 C 164.475 252.224,163.322 252.764,162.738 253.061 C 162.154 253.357,161.387 253.600,161.033 253.600 C 160.679 253.600,160.077 253.768,159.695 253.974 C 157.970 254.904,156.222 255.600,155.615 255.600 C 155.251 255.600,154.604 255.864,154.176 256.187 C 153.749 256.510,153.029 256.780,152.576 256.787 C 152.124 256.794,151.404 257.064,150.976 257.387 C 150.549 257.710,149.783 257.980,149.274 257.987 C 148.764 257.994,147.954 258.217,147.474 258.483 C 146.993 258.748,145.610 259.091,144.400 259.244 C 143.190 259.397,141.480 259.716,140.600 259.952 C 138.253 260.581,133.999 260.499,132.654 259.798 C 132.024 259.469,131.124 259.194,130.654 259.187 C 130.184 259.180,129.451 258.910,129.024 258.587 C 128.596 258.264,127.828 258.000,127.316 258.000 C 125.272 258.000,122.037 255.094,119.522 251.000 C 116.187 245.570,116.389 236.401,119.994 229.600 C 120.286 229.050,120.668 228.330,120.842 228.000 C 121.017 227.670,121.554 226.618,122.035 225.661 C 124.320 221.115,130.738 213.829,136.000 209.807 C 137.430 208.714,138.780 207.675,139.000 207.498 C 140.564 206.239,144.155 203.751,146.485 202.312 C 148.009 201.370,149.739 200.287,150.328 199.904 C 150.918 199.522,151.670 199.084,152.000 198.930 C 152.330 198.777,153.680 198.008,155.000 197.220 C 156.320 196.433,158.210 195.376,159.200 194.871 C 162.931 192.967,166.043 191.229,169.977 188.853 C 172.210 187.504,174.128 186.400,174.240 186.400 C 175.665 186.400,184.513 178.097,185.988 175.376 C 186.457 174.509,186.992 173.530,187.177 173.200 C 187.361 172.870,187.828 171.880,188.215 171.000 C 188.601 170.120,189.048 169.124,189.208 168.787 C 189.368 168.450,189.632 167.550,189.795 166.787 C 189.959 166.024,190.229 165.220,190.396 165.000 C 190.563 164.780,190.818 163.778,190.963 162.774 C 191.254 160.763,191.368 160.908,185.764 156.200 C 184.717 155.320,182.683 153.379,181.245 151.886 C 178.279 148.809,177.528 148.485,175.408 149.371 C 174.580 149.717,173.407 150.000,172.801 150.000 C 172.196 150.000,170.935 150.270,170.000 150.600 C 169.065 150.930,167.635 151.200,166.822 151.200 C 166.010 151.200,164.458 151.452,163.373 151.760 C 162.288 152.067,159.269 152.436,156.665 152.578 C 151.413 152.865,150.930 153.047,149.563 155.261 C 149.039 156.107,148.468 156.800,148.293 156.800 C 148.118 156.800,147.855 157.115,147.709 157.500 C 147.486 158.087,144.803 162.012,143.666 163.413 C 143.250 163.925,141.207 166.796,140.400 168.002 C 140.070 168.495,139.613 169.101,139.385 169.349 C 139.157 169.597,138.575 170.446,138.093 171.235 C 137.610 172.024,136.232 173.599,135.031 174.735 C 133.829 175.872,132.738 176.977,132.605 177.193 C 132.299 177.688,133.212 180.800,133.663 180.800 C 133.848 180.800,134.000 181.064,134.000 181.386 C 134.000 181.974,134.790 184.013,135.839 186.132 C 136.148 186.755,136.406 187.655,136.413 188.132 C 136.420 188.610,136.690 189.349,137.013 189.776 C 137.336 190.204,137.600 190.971,137.600 191.482 C 137.600 191.993,137.809 192.745,138.064 193.154 C 138.590 193.996,137.938 194.865,135.800 196.176 C 124.806 202.915,112.439 216.058,109.152 224.494 C 108.632 225.830,107.536 225.456,106.848 223.708 C 106.608 223.099,106.249 222.330,106.050 222.000 C 105.852 221.670,105.241 220.410,104.694 219.200 C 104.147 217.990,103.159 215.830,102.499 214.400 C 101.838 212.970,100.895 210.810,100.403 209.600 C 99.911 208.390,99.097 206.500,98.594 205.400 C 96.487 200.795,95.600 198.765,95.600 198.550 C 95.600 198.424,95.315 197.664,94.967 196.860 C 94.618 196.057,94.078 194.809,93.767 194.086 C 93.455 193.364,93.200 192.369,93.200 191.875 C 93.200 191.382,92.956 190.623,92.659 190.189 C 90.511 187.059,91.200 175.258,93.844 169.868 C 94.150 169.245,94.400 168.544,94.400 168.309 C 94.400 167.606,109.287 137.434,112.611 131.400 C 113.581 129.640,114.483 127.930,114.616 127.600 C 114.749 127.270,115.017 126.730,115.212 126.400 C 115.582 125.774,117.211 122.685,118.798 119.600 C 120.251 116.776,123.151 113.107,125.132 111.588 C 126.127 110.825,127.142 110.020,127.387 109.800 C 128.944 108.405,135.990 105.040,140.000 103.777 C 141.210 103.396,142.371 102.930,142.580 102.742 C 142.789 102.554,143.430 102.400,144.004 102.400 C 144.577 102.400,145.396 102.136,145.824 101.813 C 146.251 101.490,147.026 101.220,147.546 101.213 C 148.067 101.206,149.327 100.938,150.346 100.618 C 154.406 99.344,156.537 98.800,157.472 98.800 C 158.011 98.800,158.824 98.601,159.277 98.359 C 159.731 98.116,161.024 97.771,162.151 97.591 C 163.278 97.412,164.920 97.085,165.800 96.865 C 166.680 96.645,168.480 96.256,169.800 96.000 C 171.120 95.744,172.920 95.355,173.800 95.135 C 174.680 94.915,176.474 94.567,177.786 94.361 C 179.099 94.156,180.350 93.810,180.566 93.594 C 180.783 93.377,181.632 93.200,182.454 93.200 C 183.276 93.200,184.455 93.003,185.074 92.761 C 185.693 92.520,187.100 92.168,188.200 91.979 C 189.300 91.790,191.370 91.341,192.800 90.981 C 194.230 90.621,196.300 90.145,197.400 89.921 C 198.500 89.698,199.713 89.354,200.095 89.158 C 200.477 88.961,201.287 88.799,201.895 88.798 C 202.503 88.796,203.516 88.526,204.146 88.198 C 204.776 87.869,205.856 87.594,206.546 87.586 C 207.236 87.578,208.250 87.314,208.800 87.000 C 209.350 86.686,210.340 86.416,211.000 86.401 C 211.660 86.387,212.549 86.110,212.976 85.787 C 213.404 85.464,214.214 85.194,214.776 85.186 C 215.339 85.178,216.250 84.914,216.800 84.600 C 217.350 84.286,218.284 84.022,218.876 84.014 C 219.468 84.006,220.051 83.840,220.172 83.645 C 220.293 83.450,221.045 83.168,221.845 83.018 C 222.644 82.868,223.591 82.602,223.949 82.426 C 224.914 81.953,227.260 81.149,228.400 80.901 C 228.950 80.782,229.755 80.440,230.189 80.142 C 230.623 79.844,231.283 79.600,231.657 79.600 C 232.030 79.600,232.845 79.352,233.468 79.049 C 234.090 78.746,235.320 78.186,236.200 77.805 C 237.080 77.423,238.113 76.951,238.495 76.756 C 238.877 76.560,239.368 76.400,239.588 76.400 C 239.807 76.400,241.654 75.613,243.693 74.652 C 245.732 73.691,247.670 72.792,248.000 72.655 C 248.593 72.408,249.042 72.167,250.600 71.261 C 251.040 71.004,251.670 70.689,252.000 70.559 C 252.735 70.270,256.313 68.465,258.960 67.049 C 260.037 66.472,261.140 66.000,261.411 66.000 C 261.681 66.000,262.126 65.730,262.400 65.400 C 262.674 65.070,263.211 64.800,263.593 64.800 C 263.975 64.800,265.348 64.230,266.644 63.533 C 267.940 62.837,269.450 62.028,270.000 61.736 C 270.550 61.444,271.210 61.204,271.467 61.202 C 271.723 61.201,271.993 61.065,272.067 60.900 C 272.593 59.716,280.231 58.681,281.905 59.568 M106.800 252.347 C 106.800 252.732,107.064 253.396,107.387 253.824 C 107.710 254.251,107.980 254.844,107.987 255.142 C 107.994 255.440,108.540 256.484,109.200 257.462 C 109.860 258.440,110.400 259.336,110.400 259.454 C 110.400 260.591,117.169 266.161,120.200 267.517 C 120.860 267.812,121.910 268.312,122.532 268.627 C 123.155 268.942,124.078 269.200,124.584 269.200 C 125.089 269.200,126.168 269.478,126.982 269.818 C 129.834 271.010,144.556 270.164,147.400 268.646 C 148.060 268.293,148.870 268.001,149.200 267.997 C 149.776 267.989,152.531 267.136,154.200 266.449 C 155.758 265.807,157.813 265.116,158.800 264.901 C 159.350 264.782,160.155 264.440,160.589 264.142 C 161.023 263.844,161.766 263.600,162.240 263.600 C 162.714 263.600,163.326 263.330,163.600 263.000 C 163.874 262.670,164.515 262.400,165.025 262.400 C 165.535 262.400,166.064 262.220,166.200 262.000 C 166.687 261.212,168.977 261.552,169.570 262.500 C 170.957 264.717,172.680 268.398,173.361 270.600 C 173.769 271.920,174.292 273.450,174.523 274.000 C 175.590 276.547,176.219 285.772,175.610 289.961 C 174.975 294.335,172.639 301.906,171.155 304.400 C 170.959 304.730,170.617 305.360,170.395 305.800 C 166.194 314.132,155.369 323.197,147.200 325.222 C 146.210 325.468,144.320 325.938,143.000 326.268 C 134.427 328.408,124.329 328.041,118.540 325.379 C 117.846 325.061,117.110 324.800,116.903 324.800 C 116.256 324.800,108.405 320.621,108.017 320.070 C 107.898 319.900,107.170 319.322,106.400 318.786 C 101.929 315.670,96.722 309.117,93.854 302.993 C 93.443 302.117,92.858 300.922,92.554 300.338 C 92.249 299.754,92.000 298.968,92.000 298.592 C 92.000 298.215,91.741 297.073,91.424 296.054 C 89.932 291.257,89.357 285.306,89.968 281.000 C 90.757 275.443,91.153 273.487,91.573 273.067 C 91.808 272.832,92.000 272.241,92.000 271.752 C 92.000 271.264,92.257 270.355,92.572 269.732 C 92.886 269.110,93.741 267.340,94.472 265.800 C 95.202 264.260,95.900 262.910,96.021 262.800 C 96.143 262.690,96.670 261.880,97.193 261.000 C 98.365 259.027,106.000 251.153,106.463 251.439 C 106.649 251.554,106.800 251.962,106.800 252.347 " stroke="none" fill="#fc9c04" fill-rule="evenodd"></path></g></svg>